<?xml version="1.0" standalone="no"?>
<!DOCTYPE svg PUBLIC "-//W3C//DTD SVG 20010904//EN"
 "http://www.w3.org/TR/2001/REC-SVG-20010904/DTD/svg10.dtd">
<svg version="1.0" xmlns="http://www.w3.org/2000/svg"
 width="168.000000pt" height="168.000000pt" viewBox="0 0 168.000000 168.000000"
 preserveAspectRatio="xMidYMid meet">
<metadata>
Created by potrace 1.14, written by Peter Selinger 2001-2017
</metadata>
<g transform="translate(0.000000,168.000000) scale(0.100000,-0.100000)"
fill="#000000" stroke="none">
<path d="M319 1276 c-20 -16 -47 -51 -31 -42 16 10 15 0 -4 -29 -9 -14 -13
-25 -9 -25 3 0 0 -7 -8 -15 -9 -8 -13 -24 -10 -35 3 -12 0 -20 -6 -20 -7 0 -9
-4 -6 -10 3 -5 2 -10 -4 -10 -5 0 -8 -9 -6 -20 2 -11 -1 -20 -7 -20 -6 0 -8
-3 -5 -7 4 -3 2 -12 -4 -19 -6 -8 -9 -21 -5 -29 3 -9 2 -13 -4 -10 -6 3 -11 1
-11 -4 -2 -14 -6 -29 -9 -36 -3 -5 -3 -6 -15 -50 -4 -16 -11 -34 -15 -40 -9
-12 -24 -67 -22 -77 1 -5 -3 -8 -9 -8 -5 0 -8 -4 -4 -9 3 -5 1 -12 -5 -16 -6
-4 -8 -11 -5 -16 4 -5 2 -9 -4 -9 -5 0 -8 -8 -7 -17 2 -10 -5 -31 -14 -48 -9
-16 -15 -36 -13 -42 3 -7 0 -13 -7 -13 -6 0 -9 -4 -6 -8 3 -5 -1 -20 -9 -35
-8 -15 -11 -27 -8 -27 3 0 0 -6 -6 -13 -6 -8 -12 -22 -14 -33 -1 -10 -6 -25
-10 -31 -5 -7 -5 -13 0 -13 4 0 2 -4 -6 -9 -12 -8 -12 -12 2 -26 12 -12 17
-13 17 -3 0 8 3 9 8 3 8 -12 47 -14 58 -3 4 4 12 4 18 1 21 -13 50 -13 58 -1
6 10 8 10 8 -1 0 -11 3 -11 15 -1 8 7 15 21 15 32 0 10 4 17 8 14 4 -2 8 3 8
12 2 29 12 69 24 91 6 12 8 21 5 21 -3 0 -1 9 5 19 8 16 19 19 63 17 28 -2 62
1 75 6 13 4 21 4 18 0 -3 -5 33 -8 80 -6 74 1 86 -1 95 -17 5 -11 7 -19 3 -19
-3 0 -1 -6 5 -14 6 -7 12 -25 13 -40 1 -14 6 -26 10 -26 4 0 8 -13 8 -30 0
-16 5 -30 12 -30 6 0 9 -3 5 -6 -3 -4 1 -13 9 -21 12 -13 17 -13 31 -1 9 7 14
8 10 2 -4 -8 3 -11 23 -10 17 0 30 5 30 11 0 7 3 7 8 0 10 -14 133 -14 124 0
-3 5 2 3 13 -5 21 -17 24 -17 36 2 5 7 9 8 9 2 0 -13 79 -13 99 0 10 7 12 6 6
-4 -5 -9 -4 -11 3 -6 6 4 19 22 28 41 9 19 21 35 26 35 5 0 6 5 3 10 -3 6 -1
10 4 10 6 0 11 7 11 15 0 8 4 15 9 15 5 0 12 11 15 25 4 14 11 25 16 25 6 0
10 4 10 9 0 5 16 33 35 62 19 30 35 59 35 65 0 22 30 10 42 -18 7 -15 16 -28
20 -28 5 0 8 -7 8 -15 0 -8 5 -15 10 -15 6 0 10 -9 10 -21 0 -11 4 -18 8 -15
5 3 14 -11 21 -30 7 -19 17 -32 22 -29 5 4 9 -3 9 -14 0 -12 5 -21 10 -21 6 0
10 -7 10 -15 0 -8 5 -15 11 -15 5 0 7 -5 4 -10 -3 -6 1 -13 9 -16 9 -3 14 -10
11 -14 -8 -13 26 -35 57 -36 15 0 28 5 28 10 0 8 3 8 8 1 8 -12 41 -13 58 -3
6 4 14 4 18 1 12 -12 40 -12 48 0 12 19 9 27 -9 27 -9 0 -14 3 -10 6 3 4 -7
25 -22 48 -16 22 -29 45 -29 49 0 5 -10 17 -21 26 -12 10 -21 23 -21 30 0 6
-8 20 -17 30 -33 37 -44 51 -37 51 4 0 0 8 -9 18 -8 9 -36 48 -61 85 -46 69
-46 69 -29 98 10 16 21 29 26 29 4 0 6 4 3 8 -3 5 3 18 14 29 10 12 16 24 13
27 -4 3 -1 6 5 6 6 0 14 9 17 20 4 11 11 17 17 14 7 -4 8 -2 4 5 -7 10 29 72
46 79 5 2 6 8 2 13 -3 5 -1 9 3 9 5 0 22 25 38 55 15 30 32 55 37 55 4 0 8 7
8 15 0 8 5 15 11 15 6 0 9 6 6 13 -2 6 -10 11 -16 10 -6 -2 -11 2 -11 7 0 7
-6 7 -19 1 -10 -6 -21 -8 -24 -4 -10 10 -51 10 -64 0 -8 -6 -13 -6 -13 1 0 5
-8 9 -17 8 -21 -1 -43 -18 -37 -28 3 -4 -2 -10 -9 -15 -7 -4 -19 -23 -26 -40
-7 -18 -18 -30 -23 -26 -6 3 -9 0 -6 -8 2 -7 -4 -22 -13 -33 -10 -10 -16 -23
-13 -28 3 -4 0 -8 -5 -8 -6 0 -11 -7 -11 -15 0 -8 -4 -15 -10 -15 -5 0 -10 -6
-10 -14 0 -7 -7 -19 -15 -26 -8 -7 -13 -16 -10 -20 3 -4 -1 -13 -9 -19 -15
-13 -49 -4 -40 10 3 5 0 9 -5 9 -6 0 -11 6 -11 14 0 7 -7 19 -15 26 -8 7 -12
16 -9 21 3 5 1 9 -4 9 -5 0 -15 14 -22 30 -7 17 -16 30 -21 30 -5 0 -9 9 -9
19 0 11 -4 21 -9 23 -5 2 -20 23 -34 48 -14 25 -28 43 -32 42 -4 -2 -12 2 -16
10 -5 7 -9 8 -9 2 0 -6 -7 -11 -15 -11 -8 0 -15 5 -15 10 0 5 -7 4 -15 -3 -11
-9 -15 -9 -15 -1 0 9 -5 9 -20 1 -14 -8 -20 -8 -20 0 0 7 -6 8 -18 1 -11 -6
-23 -6 -28 -1 -5 5 -15 2 -22 -6 -7 -8 -8 -14 -2 -14 5 0 10 -5 10 -10 0 -6 9
-20 20 -32 11 -12 20 -28 20 -35 0 -7 5 -13 10 -13 6 0 10 -7 10 -15 0 -8 5
-15 11 -15 5 0 8 -4 5 -9 -3 -5 1 -12 10 -15 8 -3 13 -10 10 -14 -3 -5 6 -20
20 -35 14 -15 22 -27 19 -27 -4 0 1 -7 9 -16 9 -8 16 -21 16 -29 0 -7 4 -15 8
-17 4 -1 22 -25 40 -51 18 -27 27 -45 20 -42 -7 4 -5 0 4 -8 10 -8 15 -17 11
-20 -3 -4 -1 -7 6 -7 7 0 3 -9 -9 -22 -11 -12 -20 -28 -20 -35 0 -8 -4 -12 -9
-9 -7 5 -15 -11 -21 -44 -1 -3 -8 -9 -16 -13 -8 -4 -14 -15 -14 -22 0 -8 -4
-15 -9 -15 -5 0 -14 -14 -20 -30 -5 -17 -17 -33 -25 -36 -8 -3 -13 -11 -10
-19 3 -7 -2 -15 -10 -18 -9 -4 -16 -13 -16 -21 0 -7 -7 -17 -16 -20 -8 -3 -12
-10 -9 -16 3 -5 1 -10 -5 -10 -6 0 -8 -5 -5 -10 3 -6 -1 -13 -9 -16 -9 -3 -16
-11 -16 -16 0 -6 -8 -17 -17 -25 -10 -8 -12 -11 -5 -8 11 6 11 3 0 -14 -7 -11
-19 -23 -27 -26 -11 -5 -12 -3 -1 10 11 13 11 16 1 13 -12 -3 -20 15 -23 50
-1 6 -5 12 -10 12 -4 0 -8 11 -8 25 0 14 -4 25 -8 25 -5 0 -9 6 -10 13 -2 24
-8 47 -15 53 -4 4 -7 17 -7 29 0 12 -3 25 -7 28 -11 11 -42 107 -35 107 4 0 1
4 -6 9 -7 4 -14 18 -15 29 -1 12 -6 22 -11 22 -5 0 -7 2 -4 6 3 3 -3 27 -13
55 -10 27 -16 49 -11 49 4 0 1 4 -6 9 -7 4 -14 18 -15 29 -1 12 -5 22 -10 22
-5 0 -7 6 -5 12 3 7 -1 24 -8 37 -7 14 -11 28 -8 33 3 4 0 8 -7 8 -7 0 -10 3
-6 6 3 4 0 19 -9 35 -8 16 -14 30 -14 31 2 4 -10 38 -20 63 -5 11 -12 31 -15
44 -6 18 -9 20 -16 10 -5 -8 -9 -9 -9 -4 0 15 -50 17 -50 2 0 -7 -3 -8 -8 -2
-10 14 -126 14 -143 1z m125 -187 c-2 -4 3 -25 10 -47 8 -22 12 -43 9 -46 -4
-3 -1 -6 6 -6 8 0 11 -7 7 -15 -3 -8 -1 -15 5 -15 6 0 9 -6 6 -12 -2 -7 1 -22
6 -33 6 -11 12 -28 13 -37 3 -36 4 -39 12 -34 5 3 8 -7 7 -22 -1 -15 3 -30 9
-34 13 -9 5 -17 -23 -23 -11 -2 -26 -7 -33 -11 -6 -4 -8 -3 -4 4 4 7 -11 9
-49 7 -42 -3 -54 -1 -49 8 5 9 4 9 -5 1 -7 -6 -23 -9 -37 -6 -19 3 -22 7 -13
18 6 7 8 18 4 24 -3 5 -2 10 4 10 6 0 8 6 5 14 -3 8 0 17 5 21 6 3 9 11 6 16
-4 5 -2 9 4 9 5 0 8 9 6 20 -2 11 1 22 6 25 5 4 7 11 4 16 -4 5 -1 9 5 9 6 0
8 5 5 10 -3 6 -1 10 5 10 6 0 9 4 6 9 -3 5 1 28 9 51 8 23 12 46 9 51 -3 5 0
9 5 9 6 0 10 3 10 8 -5 27 2 35 15 17 8 -11 12 -23 10 -26z"/>
</g>
</svg>
